# xmcd
#
# Track frame offsets:
#	150
#	57480
#	77722
#	99451
#	120369
#	136876
#	156796
#	177683
#	196201
#	210098
#	216989
#	234503
#
# Disc length: 3572 seconds
#
# Revision: 0
# Processed by: cddbd v1.4PL0 Copyright (c) Steve Scherf et al.
# Submitted via: EasyCDDAExtractor 4.5.0.2
#
DISCID=a10df20c
DTITLE=Shania Twain - The Woman In Me
DYEAR=2000
DGENRE=Country
TTITLE0=Home Isn't Where The Heart Is (Anymore)
TTITLE1=Any Man Of Mine
TTITLE2=Whose Bed Have Your Boots Been Under
TTITLE3=(If Your Not In It For Love) I'm Outta Here!
TTITLE4=The Woman In Me (Needs The Man In You)
TTITLE5=Is There Life After Love?
TTITLE6=If It Don't Take Two
TTITLE7=You Win My Love
TTITLE8=Raining On Our Love
TTITLE9=Leaving Is The Only Way Out
TTITLE10=No One Needs To Know
TTITLE11=God Bless The Child
EXTD=
EXTT0=
EXTT1=
EXTT2=
EXTT3=
EXTT4=
EXTT5=
EXTT6=
EXTT7=
EXTT8=
EXTT9=
EXTT10=
EXTT11=
PLAYORDER=
